# xmcd
#
# Track frame offsets: 
#        150
#        16986
#        32569
#        45089
#        67031
#        84198
#        106685
#        121529
#        138580
#        155823
#        173059
#        204362
#
# Disc length: 2901 seconds
#
# Revision: 0
# Processed by: cddbd v1.5.2PL0 Copyright (c) Steve Scherf et al.
# Submitted via: ExactAudioCopyFreeDBPlugin 1.0
#
DISCID=890b530c
DTITLE=Brian Wright - Rattle Their Chains
DYEAR=2013
DGENRE=Americana
TTITLE0=Over Yet Blues
TTITLE1=We Don't Live There
TTITLE2=Red Rooster Social Club
TTITLE3=Haunted
TTITLE4=Hear What I Want
TTITLE5=Weird Winter
TTITLE6=The Good Dead Queen
TTITLE7=Face of the Earth
TTITLE8=Can't Stand to Listen
TTITLE9=You Got it All
TTITLE10=Rosalee
TTITLE11=Love My Little Baby
EXTD=
EXTT0=
EXTT1=
EXTT2=
EXTT3=
EXTT4=
EXTT5=
EXTT6=
EXTT7=
EXTT8=
EXTT9=
EXTT10=
EXTT11=
PLAYORDER=
